<svg width="27" height="25" viewBox="0 0 27 25" fill="none" xmlns="http://www.w3.org/2000/svg">
<path d="M6.75 25C6.48529 25 6.25368 24.9321 6.05515 24.7962C5.85662 24.6603 5.75735 24.5018 5.75735 24.3207C5.75735 24.1395 5.85662 23.981 6.05515 23.8451C6.25368 23.7092 6.48529 23.6413 6.75 23.6413C7.01471 23.6413 7.24632 23.7092 7.44485 23.8451C7.64338 23.981 7.74265 24.1395 7.74265 24.3207C7.74265 24.5018 7.64338 24.6603 7.44485 24.7962C7.24632 24.9321 7.01471 25 6.75 25ZM20.25 25C19.9853 25 19.7537 24.9321 19.5551 24.7962C19.3566 24.6603 19.2574 24.5018 19.2574 24.3207C19.2574 24.1395 19.3566 23.981 19.5551 23.8451C19.7537 23.7092 19.9853 23.6413 20.25 23.6413C20.5147 23.6413 20.7463 23.7092 20.9449 23.8451C21.1434 23.981 21.2426 24.1395 21.2426 24.3207C21.2426 24.5018 21.1434 24.6603 20.9449 24.7962C20.7463 24.9321 20.5147 25 20.25 25ZM5.95588 22.5543C4.84412 22.5543 3.75221 22.3822 2.68015 22.038C1.60809 21.6938 0.767647 21.2047 0.158824 20.5707C0.105882 20.5103 0.0661765 20.4559 0.0397059 20.4076C0.0132353 20.3593 0 20.3049 0 20.2446C0 20.0996 0.0696574 19.9728 0.208972 19.8641C0.348287 19.7554 0.539854 19.7011 0.783675 19.7011C0.92299 19.7011 1.05221 19.7192 1.17132 19.7554C1.29044 19.7917 1.37647 19.846 1.42941 19.9185C1.77353 20.317 2.28309 20.6386 2.95809 20.8832C3.63309 21.1277 4.31471 21.3043 5.00294 21.413L10.2441 17.0652L7.86176 12.4457C7.72941 12.1739 7.69632 11.9293 7.7625 11.712C7.82868 11.4946 7.96765 11.2591 8.17941 11.0054L12.5471 6.25H7.86176L4.96324 9.45652L2.93824 8.61413L6.59118 4.61957H15.4059C16.0231 4.61957 16.5203 4.73648 16.8976 4.9703C17.2748 5.20412 17.5319 5.42235 17.6691 5.625L18.5029 6.92935C19.0588 7.79891 19.9125 8.52355 21.064 9.10326C22.2154 9.68297 23.5324 10 25.0147 10.0543V11.6848C23.2941 11.6486 21.7059 11.3043 20.25 10.6522C18.7941 10 17.5897 9.15761 16.6368 8.125L13.2618 11.8207L20.25 15.1087V21.4674H21.4412C22.2769 21.4674 23.0549 21.3315 23.7753 21.0598C24.4957 20.788 25.0941 20.4076 25.5706 19.9185C25.6588 19.846 25.7515 19.7917 25.8485 19.7554C25.9456 19.7192 26.0647 19.7011 26.2059 19.7011C26.4176 19.7011 26.6029 19.7547 26.7618 19.8618C26.9206 19.9689 27 20.0939 27 20.2368C27 20.2963 26.9868 20.3512 26.9603 20.4013C26.9338 20.4515 26.8941 20.5079 26.8412 20.5707C26.2324 21.2047 25.4581 21.6938 24.5184 22.038C23.5787 22.3822 22.5529 22.5543 21.4412 22.5543H5.95588ZM8.06029 21.4674H17.8676V16.3043L11.0779 13.0707L13.0632 17.337L8.06029 21.4674ZM19.3399 3.96739C18.5437 3.96739 17.861 3.77337 17.2919 3.38533C16.7228 2.99726 16.4382 2.53078 16.4382 1.98587C16.4382 1.44094 16.7217 0.973732 17.2887 0.584239C17.8558 0.194746 18.5374 0 19.3336 0C20.1298 0 20.8125 0.194022 21.3816 0.582065C21.9507 0.970127 22.2353 1.43661 22.2353 1.98152C22.2353 2.52645 21.9518 2.99366 21.3848 3.38315C20.8178 3.77264 20.1362 3.96739 19.3399 3.96739Z" fill="#00C2FF"/>
</svg>
