<svg width="20" height="20" viewBox="0 0 20 20" fill="none" xmlns="http://www.w3.org/2000/svg">
<path d="M12.25 20C11.3056 20 10.5139 19.6695 9.875 19.0084C9.23611 18.3473 8.91667 17.486 8.91667 16.4246C8.91667 15.4935 9.13426 14.6927 9.56944 14.0223C10.0046 13.352 10.5463 12.7933 11.1944 12.3464C11.8426 11.8994 12.5324 11.5596 13.2639 11.3268C13.9954 11.094 14.6574 10.9497 15.25 10.8939C15.1944 9.8324 14.9676 9.0689 14.5694 8.60335C14.1713 8.1378 13.6111 7.90503 12.8889 7.90503C12.1667 7.90503 11.4907 8.12384 10.8611 8.56145C10.2315 8.99907 9.38889 9.94413 8.33333 11.3966C7.16667 12.9609 6.22685 14.013 5.51389 14.5531C4.80093 15.0931 4.01852 15.3631 3.16667 15.3631C2.37037 15.3631 1.64352 15.0931 0.986111 14.5531C0.328704 14.013 0 13.0912 0 11.7877C0 11.1918 0.208333 10.4236 0.625 9.48324C1.04167 8.54283 1.75926 7.24395 2.77778 5.58659C3.25926 4.87896 3.60648 4.29237 3.81944 3.82682C4.03241 3.36127 4.13889 2.9702 4.13889 2.65363C4.13889 2.44879 4.08333 2.28585 3.97222 2.1648C3.86111 2.04376 3.69444 1.98324 3.47222 1.98324C3.21296 1.98324 2.92593 2.08101 2.61111 2.27654C2.2963 2.47207 1.9537 2.80261 1.58333 3.26816L0.222222 1.84358C0.759259 1.21043 1.2963 0.744879 1.83333 0.446927C2.37037 0.148976 2.91667 0 3.47222 0C4.25 0 4.88426 0.260708 5.375 0.782123C5.86574 1.30354 6.11111 1.95531 6.11111 2.73743C6.11111 3.3892 5.93982 4.04097 5.59722 4.69274C5.25463 5.34451 4.71296 6.23836 3.97222 7.3743C3.13889 8.62197 2.59722 9.54376 2.34722 10.1397C2.09722 10.7356 1.97222 11.3315 1.97222 11.9274C1.97222 12.5233 2.125 12.9143 2.43056 13.1006C2.73611 13.2868 3.05556 13.3799 3.38889 13.3799C3.83333 13.3799 4.28704 13.1657 4.75 12.7374C5.21296 12.3091 5.92593 11.4618 6.88889 10.1955C8.14815 8.5568 9.24074 7.43482 10.1667 6.82961C11.0926 6.22439 12.0833 5.92179 13.1389 5.92179C14.3611 5.92179 15.3241 6.37337 16.0278 7.27654C16.7315 8.1797 17.1296 9.35754 17.2222 10.8101H20V12.7933H17.2222C17.037 15.6797 16.3981 17.6024 15.3056 18.5615C14.213 19.5205 13.1944 20 12.25 20ZM12.3333 18.0168C12.9074 18.0168 13.5231 17.6443 14.1806 16.8994C14.838 16.1546 15.213 14.8045 15.3056 12.8492C14.3981 12.9423 13.4352 13.3147 12.4167 13.9665C11.3981 14.6182 10.8889 15.5028 10.8889 16.6201C10.8889 17.0484 11.0139 17.3883 11.2639 17.6397C11.5139 17.8911 11.8704 18.0168 12.3333 18.0168Z" fill="#4EAF51"/>
</svg>
