<svg width="23" height="20" viewBox="0 0 23 20" fill="none" xmlns="http://www.w3.org/2000/svg">
<path d="M16.3983 0.388916C14.3023 0.388916 12.5113 1.88292 11.5273 2.91292C10.5433 1.88292 8.7563 0.388916 6.6613 0.388916C3.0503 0.388916 0.529297 2.90592 0.529297 6.50892C0.529297 10.4789 3.6603 13.0449 6.6893 15.5269C8.1193 16.6999 9.5993 17.9119 10.7343 19.2559C10.9253 19.4809 11.2053 19.6109 11.4993 19.6109H11.5573C11.8523 19.6109 12.1313 19.4799 12.3213 19.2559C13.4583 17.9119 14.9373 16.6989 16.3683 15.5269C19.3963 13.0459 22.5293 10.4799 22.5293 6.50892C22.5293 2.90592 20.0083 0.388916 16.3983 0.388916Z" fill="white"/>
</svg>
