<svg width="18" height="20" viewBox="0 0 18 20" fill="none" xmlns="http://www.w3.org/2000/svg">
<path d="M10.252 1.25V2.03125C13.1035 2.61719 15.252 5.11719 15.252 8.125V8.86719C15.252 10.7031 15.916 12.5 17.127 13.8672L17.4004 14.1797C17.752 14.5703 17.8301 15.0781 17.6348 15.5469C17.4395 15.9766 16.9707 16.25 16.502 16.25H1.50195C0.994141 16.25 0.525391 15.9766 0.330078 15.5469C0.134766 15.0781 0.212891 14.5703 0.564453 14.1797L0.837891 13.8672C2.04883 12.5 2.75195 10.7031 2.75195 8.86719V8.125C2.75195 5.11719 4.86133 2.61719 7.75195 2.03125V1.25C7.75195 0.585938 8.29883 0 9.00195 0C9.66602 0 10.252 0.585938 10.252 1.25ZM9.00195 20C8.33789 20 7.67383 19.7656 7.20508 19.2969C6.73633 18.8281 6.50195 18.1641 6.50195 17.5H11.502C11.502 18.1641 11.2285 18.8281 10.7598 19.2969C10.291 19.7656 9.62695 20 9.00195 20Z" fill="#9E5CF2"/>
</svg>
