<svg width="25" height="24" viewBox="0 0 25 24" fill="none" xmlns="http://www.w3.org/2000/svg">
<path d="M8.22 21.7836C9.99707 23.2212 12.2144 24.0038 14.5 24C16.008 24 17.44 23.6659 18.726 23.0658L23.304 23.98C23.4653 24.0121 23.632 24.0039 23.7894 23.9562C23.9468 23.9084 24.09 23.8226 24.2063 23.7063C24.3226 23.59 24.4085 23.4468 24.4562 23.2893C24.5039 23.1319 24.5121 22.9651 24.48 22.8038L23.566 18.2271C24.166 16.9409 24.5 15.5067 24.5 13.9984C24.5033 11.7132 23.7209 9.49625 22.284 7.71944C22.5686 9.20035 22.5733 10.7215 22.298 12.2041C22.7173 14.037 22.4802 15.959 21.628 17.635C21.5253 17.836 21.4936 18.0658 21.538 18.2871L22.226 21.7256L18.786 21.0375C18.5654 20.9935 18.3364 21.0253 18.136 21.1275C16.46 21.9812 14.5372 22.2184 12.704 21.7976C11.2216 22.0733 9.70066 22.0686 8.22 21.7836ZM0.500009 9.9978C0.500825 7.83353 1.20355 5.72791 2.50267 3.99708C3.8018 2.26624 5.62723 1.00357 7.70491 0.398634C9.78259 -0.2063 12.0004 -0.120856 14.0254 0.642138C16.0504 1.40513 17.7733 2.8045 18.9355 4.63016C20.0976 6.45583 20.6363 8.60926 20.4707 10.7672C20.305 12.9251 19.444 14.9711 18.0168 16.5979C16.5896 18.2247 14.6733 19.3447 12.5556 19.7895C10.4379 20.2344 8.23301 19.9803 6.27201 19.0652L1.69601 19.9794C1.5347 20.0115 1.36795 20.0033 1.21055 19.9556C1.05316 19.9078 0.90996 19.822 0.793657 19.7057C0.677354 19.5893 0.591533 19.4461 0.543801 19.2887C0.496068 19.1313 0.487896 18.9645 0.520009 18.8032L1.43401 14.2245C0.816867 12.901 0.498017 11.4581 0.500009 9.9978ZM10.5 13.7584C10.1685 13.7584 9.85054 13.8901 9.61612 14.1246C9.3817 14.359 9.25 14.677 9.25 15.0086C9.25 15.3402 9.3817 15.6581 9.61612 15.8926C9.85054 16.1271 10.1685 16.2588 10.5 16.2588C10.8315 16.2588 11.1495 16.1271 11.3839 15.8926C11.6183 15.6581 11.75 15.3402 11.75 15.0086C11.75 14.677 11.6183 14.359 11.3839 14.1246C11.1495 13.8901 10.8315 13.7584 10.5 13.7584ZM10.5 4.00286C8.404 4.00286 6.772 5.63911 6.794 7.91347C6.79666 8.17873 6.90456 8.43207 7.09397 8.61776C7.28338 8.80345 7.53879 8.90628 7.804 8.90362C8.06922 8.90097 8.32252 8.79305 8.50818 8.60361C8.69384 8.41417 8.79665 8.15872 8.794 7.89347C8.782 6.73529 9.514 6.00317 10.5 6.00317C11.444 6.00317 12.206 6.78729 12.206 7.90347C12.206 8.30753 12.066 8.53357 11.486 8.99164L10.932 9.42171C9.92 10.2298 9.5 10.8559 9.5 11.9981C9.49954 12.248 9.59266 12.4891 9.76102 12.6738C9.92938 12.8585 10.1608 12.9734 10.4096 12.996C10.6585 13.0186 10.9068 12.9472 11.1057 12.7958C11.3045 12.6444 11.4395 12.4241 11.484 12.1781L11.506 11.8661C11.54 11.57 11.706 11.358 12.198 10.9699L12.752 10.5399C13.778 9.71975 14.206 9.07565 14.206 7.90347C14.206 5.69512 12.562 4.00286 10.5 4.00286Z" fill="#3949AB"/>
</svg>
